<svg xmlns="http://www.w3.org/2000/svg" viewBox="0 0 1000 650" fill="none">
  <!-- Background land -->
  <rect width="1000" height="650" fill="#eef1f5"/>

  <!-- Gulf of Mexico -->
  <path d="M 500 575 L 515 485 L 550 460 L 615 435 L 640 410 L 685 390 L 715 385 L 750 400 L 785 400 L 825 410 L 850 415 L 880 425 L 905 415 L 925 400 L 935 365 L 1000 365 L 1000 650 L 500 650 Z" fill="#d6e4ee"/>

  <!-- Texas -->
  <polygon points="225,50 375,50 375,160 650,195 675,225 685,390 640,410 615,435 550,460 515,485 500,575 425,550 400,510 325,425 225,415 175,400 140,375 75,305 45,285 45,275 225,275" fill="#f8f9fb" stroke="#bfc8d4" stroke-width="1.5" stroke-linejoin="round"/>

  <!-- Louisiana -->
  <polygon points="675,225 685,390 715,385 750,400 785,400 825,410 850,415 880,425 905,415 925,400 935,365 925,325 925,225" fill="#f8f9fb" stroke="#bfc8d4" stroke-width="1.5" stroke-linejoin="round"/>

  <!-- State labels -->
  <text x="380" y="320" font-family="system-ui, -apple-system, sans-serif" font-size="36" font-weight="300" fill="#9ca8b8" letter-spacing="10" text-anchor="middle">TEXAS</text>
  <text x="808" y="295" font-family="system-ui, -apple-system, sans-serif" font-size="18" font-weight="300" fill="#9ca8b8" letter-spacing="5" text-anchor="middle">LOUISIANA</text>
  <text x="750" y="560" font-family="system-ui, -apple-system, sans-serif" font-size="16" font-weight="300" fill="#a8bac8" letter-spacing="8" text-anchor="middle" font-style="italic">GULF OF MEXICO</text>
</svg>
